<?xml version="1.0" standalone="no"?>
<!DOCTYPE svg PUBLIC "-//W3C//DTD SVG 20010904//EN"
 "http://www.w3.org/TR/2001/REC-SVG-20010904/DTD/svg10.dtd">
<svg version="1.0" xmlns="http://www.w3.org/2000/svg"
 width="1024.000000pt" height="1024.000000pt" viewBox="0 0 1024.000000 1024.000000"
 preserveAspectRatio="xMidYMid meet">

<g transform="translate(0.000000,1024.000000) scale(0.100000,-0.100000)"
fill="#000000" stroke="none">
<path d="M5043 8154 c-6 -3 -23 -22 -38 -42 l-26 -37 28 32 c16 18 40 36 53
42 14 5 18 10 10 10 -8 -1 -20 -3 -27 -5z"/>
<path d="M5111 8102 c0 -13 -21 -61 -45 -105 -46 -86 -77 -173 -75 -216 0 -14
7 3 14 39 8 36 37 109 65 163 31 59 49 107 47 120 -4 21 -4 21 -6 -1z"/>
<path d="M4339 7983 c-14 -16 -31 -37 -38 -48 -8 -11 3 -1 23 23 38 43 71 53
94 30 20 -20 14 -73 -15 -114 -33 -49 -53 -115 -51 -168 1 -40 1 -40 5 -6 7
67 23 120 53 167 34 54 39 102 12 126 -27 24 -55 21 -83 -10z"/>
<path d="M5669 7979 c-27 -29 -84 -137 -77 -145 2 -2 16 23 31 54 36 79 70
114 105 110 21 -2 30 -11 39 -38 7 -19 12 -27 12 -18 3 69 -60 91 -110 37z"/>
<path d="M4926 7975 c-9 -26 -7 -32 5 -12 6 10 9 21 6 23 -2 3 -7 -2 -11 -11z"/>
<path d="M5739 7877 c-36 -62 -58 -119 -58 -147 1 -23 1 -23 10 5 5 17 15 46
21 65 6 19 22 52 36 73 14 20 23 40 20 42 -2 3 -15 -14 -29 -38z"/>
<path d="M4266 7870 c-9 -22 -16 -46 -16 -53 1 -6 10 10 20 37 11 28 18 51 16
53 -2 2 -11 -14 -20 -37z"/>
<path d="M4891 7874 c0 -11 3 -14 6 -6 3 7 2 16 -1 19 -3 4 -6 -2 -5 -13z"/>
<path d="M4881 7824 c0 -11 3 -14 6 -6 3 7 2 16 -1 19 -3 4 -6 -2 -5 -13z"/>
<path d="M5581 7804 c0 -11 3 -14 6 -6 3 7 2 16 -1 19 -3 4 -6 -2 -5 -13z"/>
<path d="M4241 7730 c0 -41 4 -84 8 -95 4 -11 6 18 4 65 -6 110 -11 125 -12
30z"/>
<path d="M4873 7745 c0 -22 2 -30 4 -17 2 12 2 30 0 40 -3 9 -5 -1 -4 -23z"/>
<path d="M5573 7725 c0 -27 2 -38 4 -22 2 15 2 37 0 50 -2 12 -4 0 -4 -28z"/>
<path d="M4982 7730 c0 -14 2 -19 5 -12 2 6 2 18 0 25 -3 6 -5 1 -5 -13z"/>
<path d="M4991 7684 c-2 -36 47 -117 110 -184 l61 -65 -54 65 c-70 83 -87 110
-103 162 -8 24 -14 34 -14 22z"/>
<path d="M5691 7676 c-1 -25 35 -101 57 -118 9 -8 7 1 -7 20 -13 19 -29 53
-37 75 -7 23 -13 33 -13 23z"/>
<path d="M4880 7664 c0 -10 5 -26 10 -34 8 -11 9 -7 4 15 -8 37 -14 45 -14 19z"/>
<path d="M5582 7650 c0 -14 2 -19 5 -12 2 6 2 18 0 25 -3 6 -5 1 -5 -13z"/>
<path d="M4370 7623 c0 -6 9 -21 21 -34 l20 -24 -17 30 c-24 39 -24 40 -24 28z"/>
<path d="M5600 7594 c0 -17 60 -106 110 -164 26 -30 59 -73 74 -94 14 -21 26
-35 26 -30 0 14 -27 52 -87 120 -29 33 -68 87 -88 119 -19 32 -35 54 -35 49z"/>
<path d="M4270 7576 c0 -12 76 -118 129 -181 28 -33 60 -82 71 -110 10 -27 19
-41 19 -30 1 27 -39 95 -93 158 -24 29 -62 79 -85 111 -22 33 -41 56 -41 52z"/>
<path d="M4910 7573 c0 -4 25 -40 55 -78 127 -161 155 -202 165 -240 l10 -40
-5 39 c-3 26 -19 58 -52 101 -139 183 -173 226 -173 218z"/>
<path d="M4410 7556 c0 -2 8 -10 18 -17 15 -13 16 -12 3 4 -13 16 -21 21 -21
13z"/>
<path d="M5791 7505 c49 -55 104 -133 123 -175 10 -23 14 -26 10 -10 -8 35
-88 151 -132 191 l-37 34 36 -40z"/>
<path d="M4486 7465 c61 -76 69 -85 56 -60 -6 11 -32 43 -57 70 l-47 50 48
-60z"/>
<path d="M5172 7415 c9 -11 28 -42 42 -70 14 -27 26 -44 26 -37 0 18 -47 97
-68 113 -16 13 -16 12 0 -6z"/>
<path d="M4565 7350 c8 -16 19 -46 24 -67 7 -28 9 -31 10 -13 1 25 -33 110
-44 110 -3 0 1 -13 10 -30z"/>
<path d="M5238 7203 c-3 -66 -10 -99 -27 -132 -30 -57 -113 -138 -154 -150
-22 -6 -26 -9 -11 -10 25 -1 89 44 127 89 53 63 70 109 75 203 2 48 2 87 -1
87 -2 0 -7 -39 -9 -87z"/>
<path d="M5811 7274 c0 -11 3 -14 6 -6 3 7 2 16 -1 19 -3 4 -6 -2 -5 -13z"/>
<path d="M5932 7260 c0 -19 2 -27 5 -17 2 9 2 25 0 35 -3 9 -5 1 -5 -18z"/>
<path d="M5823 7210 c0 -25 2 -35 4 -22 2 12 2 32 0 45 -2 12 -4 2 -4 -23z"/>
<path d="M4597 7190 c-16 -109 -75 -201 -161 -250 -28 -17 -46 -30 -40 -30 25
0 106 63 143 112 41 55 76 156 69 201 -2 12 -7 -3 -11 -33z"/>
<path d="M4476 7167 c-8 -44 -63 -107 -126 -146 -41 -25 -50 -36 -50 -59 0
-29 16 -52 34 -52 6 0 3 5 -6 11 -11 6 -18 22 -18 39 0 23 8 33 44 54 55 32
123 108 131 147 4 17 5 33 2 35 -2 3 -7 -10 -11 -29z"/>
<path d="M5132 7180 c0 -14 2 -19 5 -12 2 6 2 18 0 25 -3 6 -5 1 -5 -13z"/>
<path d="M5932 7160 c0 -14 2 -19 5 -12 2 6 2 18 0 25 -3 6 -5 1 -5 -13z"/>
<path d="M5785 7111 c-17 -25 -55 -62 -85 -83 -30 -20 -56 -42 -58 -48 -3 -7
5 -3 17 9 11 11 26 21 31 21 17 0 100 81 117 113 23 45 11 39 -22 -12z"/>
<path d="M5102 7112 l-23 -37 25 28 c14 15 26 32 26 38 0 15 -4 11 -28 -29z"/>
<path d="M5902 7080 c-28 -59 -121 -148 -162 -156 -17 -4 -33 -10 -35 -15 -7
-10 43 4 81 24 54 28 153 158 142 186 -2 4 -13 -13 -26 -39z"/>
<path d="M5039 7047 c-14 -12 -35 -28 -45 -35 -10 -7 0 -3 24 10 24 12 48 28
54 35 17 21 -5 14 -33 -10z"/>
<path d="M4956 6985 c-3 -9 -6 -22 -5 -28 0 -7 5 -1 10 12 5 13 8 26 5 28 -2
2 -6 -3 -10 -12z"/>
<path d="M5640 6941 c0 -10 29 -36 34 -30 1 2 -6 12 -16 22 -10 9 -18 13 -18
8z"/>
<path d="M4960 6930 c0 -9 39 -25 45 -18 2 2 -7 8 -21 15 -13 6 -24 7 -24 3z"/>
<path d="M4358 6903 c7 -3 16 -2 19 1 4 3 -2 6 -13 5 -11 0 -14 -3 -6 -6z"/>
<path d="M3873 6693 c687 -2 1807 -2 2490 0 683 1 122 2 -1248 2 -1369 0
-1928 -1 -1242 -2z"/>
<path d="M2588 6683 c6 -2 18 -2 25 0 6 3 1 5 -13 5 -14 0 -19 -2 -12 -5z"/>
<path d="M7680 6669 c172 -45 305 -168 368 -341 l27 -73 5 -1445 5 -1445 2
1420 c3 1558 6 1479 -57 1609 -37 77 -113 163 -191 215 -60 40 -170 82 -213
80 -11 0 13 -9 54 -20z"/>
<path d="M2475 6653 c-80 -34 -133 -72 -189 -134 -53 -59 -109 -169 -125 -247
-16 -76 -15 -2880 0 -2954 27 -127 100 -240 204 -313 67 -48 180 -95 225 -94
14 0 -1 7 -34 15 -201 49 -348 200 -386 400 -8 43 -10 461 -8 1504 l3 1445 22
59 c29 77 96 178 145 220 45 39 144 94 202 112 23 7 32 13 21 13 -11 0 -47
-11 -80 -26z"/>
<path d="M2595 6535 c-38 -13 -38 -14 -5 -7 19 4 1162 7 2540 7 l2505 0 49
-23 c27 -12 51 -20 54 -18 6 6 -64 35 -113 46 -24 6 -1028 9 -2515 9 -2081 0
-2481 -3 -2515 -14z"/>
<path d="M2485 6491 c-66 -38 -130 -108 -163 -179 l-27 -57 0 -1460 0 -1460
26 -56 c50 -106 143 -185 254 -214 53 -13 326 -15 2540 -13 l2480 3 -2506 5
-2505 5 -76 38 c-86 42 -133 89 -176 177 l-27 55 -3 1420 c-2 1027 0 1437 8
1480 13 67 54 146 97 187 15 15 55 43 87 62 71 43 63 48 -9 7z"/>
<path d="M7816 6425 c54 -54 76 -85 97 -135 14 -36 26 -58 27 -50 0 8 -13 42
-29 75 -29 60 -77 117 -135 158 -17 12 1 -10 40 -48z"/>
<path d="M2965 6283 c-53 -12 -127 -35 -123 -38 2 -2 26 3 53 13 46 16 175 17
1685 22 l1635 5 -1615 1 c-888 1 -1624 0 -1635 -3z"/>
<path d="M6270 6265 c30 -7 57 -12 58 -10 6 5 -71 25 -93 24 -11 0 5 -7 35
-14z"/>
<path d="M6393 6218 c110 -60 191 -151 248 -278 l24 -55 0 -1070 0 -1070 -29
-70 c-54 -131 -130 -213 -258 -279 -39 -20 -65 -36 -59 -36 36 0 143 70 212
139 66 66 80 87 110 161 l34 85 3 1040 c2 672 -1 1057 -8 1087 -28 131 -142
284 -259 346 -32 18 -63 32 -67 32 -5 0 17 -15 49 -32z"/>
<path d="M2753 6197 c-60 -40 -133 -117 -154 -161 -6 -14 -4 -13 8 4 41 57
112 126 168 161 33 22 56 39 50 39 -5 0 -38 -20 -72 -43z"/>
<path d="M7948 4855 c3 -1258 0 -1470 -22 -1540 -4 -11 2 -4 11 15 17 33 18
119 21 1405 1 754 -1 1397 -5 1430 -5 33 -7 -557 -5 -1310z"/>
<path d="M2950 6126 c-25 -6 -54 -18 -65 -25 l-20 -13 20 8 c97 34 85 34 1710
34 1757 0 1653 4 1759 -64 84 -54 143 -141 165 -246 9 -41 11 -314 9 -1050
l-3 -995 -27 -57 c-51 -108 -160 -192 -283 -218 -57 -12 -3223 -9 -3265 3 -14
3 -7 0 15 -7 34 -12 290 -15 1625 -15 1733 -1 1642 -4 1752 56 64 35 133 110
166 181 l27 57 0 1030 0 1030 -34 73 c-43 90 -123 169 -208 204 l-58 23 -1620
2 c-1259 1 -1630 -1 -1665 -11z"/>
<path d="M2808 6056 c-55 -42 -107 -121 -125 -189 -10 -41 -13 -254 -13 -1053
0 -977 0 -1003 20 -1067 23 -75 92 -160 169 -209 69 -43 71 -33 3 12 -75 50
-117 98 -151 170 l-26 55 0 1045 0 1045 29 58 c18 36 51 78 89 112 69 63 71
71 5 21z"/>
<path d="M2575 5999 c-4 -6 -5 -12 -2 -15 2 -3 7 2 10 11 7 17 1 20 -8 4z"/>
<path d="M2551 5939 c-6 -18 -11 -39 -10 -48 0 -9 7 4 14 29 16 51 13 67 -4
19z"/>
<path d="M2532 4825 c-2 -1148 -4 -1096 57 -1212 70 -132 185 -222 331 -262
74 -21 87 -21 1685 -19 l1610 3 -1630 5 c-1332 4 -1637 8 -1670 19 -165 56
-284 166 -348 324 -22 52 -22 56 -27 1122 l-5 1070 -3 -1050z"/>
<path d="M7218 5573 c61 -2 163 -2 225 0 61 1 11 3 -113 3 -124 0 -174 -2
-112 -3z"/>
<path d="M7045 5551 c-42 -26 -71 -60 -90 -103 -18 -45 -21 -310 -4 -373 15
-52 82 -119 134 -134 51 -14 447 -15 498 0 47 13 106 63 123 106 10 23 14 84
14 216 l0 184 -29 39 c-31 43 -62 67 -101 78 -15 4 -9 -2 14 -13 53 -28 65
-39 87 -82 17 -33 19 -60 19 -214 0 -126 -4 -185 -14 -208 -17 -42 -66 -83
-114 -97 -50 -13 -446 -13 -497 1 -51 14 -110 73 -124 124 -17 63 -14 328 4
373 21 49 52 81 100 103 22 10 33 19 25 19 -8 0 -28 -8 -45 -19z"/>
<path d="M5896 5495 c-35 -12 -106 -70 -106 -86 0 -4 17 10 38 31 51 52 99 63
249 58 67 -1 115 0 105 4 -32 13 -245 8 -286 -7z"/>
<path d="M6236 5468 c17 -12 41 -36 53 -53 21 -31 21 -37 21 -574 0 -609 3
-585 -72 -634 -41 -26 -46 -27 -188 -27 -173 0 -209 13 -247 90 -13 24 -23 37
-23 29 0 -28 44 -83 85 -106 36 -21 53 -23 183 -23 151 0 192 10 234 56 37 41
38 67 39 616 0 533 0 539 -21 573 -20 33 -69 75 -86 75 -5 0 5 -10 22 -22z"/>
<path d="M7116 5419 c-26 -20 -26 -21 -26 -158 0 -103 4 -142 14 -157 13 -18
28 -19 218 -20 l203 0 -196 5 c-145 4 -200 10 -212 20 -14 11 -17 35 -17 145
0 98 4 137 14 152 13 17 30 19 197 22 100 2 193 1 205 -2 48 -13 54 -29 56
-169 l2 -132 4 120 c1 66 0 130 -3 142 -11 45 -49 53 -248 53 -171 0 -186 -1
-211 -21z"/>
<path d="M5776 5375 c-3 -9 -5 -251 -4 -538 l3 -522 5 535 c3 294 4 536 4 538
-1 2 -4 -4 -8 -13z"/>
<path d="M5938 5349 c-10 -5 -18 -18 -17 -27 0 -14 2 -14 6 -2 10 26 25 30
120 30 70 0 95 -4 107 -16 14 -14 16 -73 16 -499 l0 -484 -22 -15 c-18 -13
-19 -16 -6 -16 10 0 22 9 28 19 6 13 10 188 10 500 0 572 13 521 -132 521 -51
0 -101 -5 -110 -11z"/>
<path d="M5913 4850 c0 -250 2 -468 6 -485 5 -23 14 -33 41 -42 38 -13 105
-15 132 -5 9 4 -16 7 -57 7 -119 1 -109 -43 -115 508 l-6 472 -1 -455z"/>
<path d="M7546 5105 c-11 -8 -15 -15 -9 -15 6 0 16 7 23 15 16 19 11 19 -14 0z"/>
<path d="M7364 4663 c-50 -10 -88 -93 -58 -123 6 -6 8 6 6 31 -7 68 12 79 132
79 75 0 108 -4 126 -16 l25 -16 -24 21 c-17 16 -37 21 -76 21 -29 0 -65 2 -81
4 -16 2 -39 2 -50 -1z"/>
<path d="M7590 4576 c0 -25 -7 -40 -26 -55 -15 -12 -22 -21 -15 -21 23 0 51
40 51 75 0 19 -2 35 -5 35 -3 0 -5 -15 -5 -34z"/>
<path d="M7353 4498 c7 -4 50 -7 97 -6 96 1 82 6 -32 10 -42 2 -71 0 -65 -4z"/>
<path d="M6278 3353 c7 -3 16 -2 19 1 4 3 -2 6 -13 5 -11 0 -14 -3 -6 -6z"/>
<path d="M8063 3306 c-29 -137 -138 -274 -268 -336 -133 -63 38 -59 -2690 -62
-1369 -2 -2257 -4 -1973 -5 l517 -3 4 -38 4 -37 1 38 2 37 1914 0 1915 0 4
-42 4 -43 1 43 2 42 48 0 c72 0 180 27 250 61 111 54 219 172 257 279 22 61
34 120 26 120 -4 0 -12 -24 -18 -54z"/>
<path d="M6228 3343 c6 -2 18 -2 25 0 6 3 1 5 -13 5 -14 0 -19 -2 -12 -5z"/>
<path d="M7887 3247 c-49 -83 -157 -158 -249 -173 -21 -4 -38 -10 -38 -15 0
-12 98 19 151 48 26 14 63 41 84 61 43 42 91 110 83 118 -3 3 -17 -15 -31 -39z"/>
<path d="M2832 2865 c0 -16 2 -22 5 -12 2 9 2 23 0 30 -3 6 -5 -1 -5 -18z"/>
<path d="M3512 2865 c0 -16 2 -22 5 -12 2 9 2 23 0 30 -3 6 -5 -1 -5 -18z"/>
<path d="M6701 2875 c-2 -38 42 -108 79 -127 31 -16 59 -18 255 -16 l220 2
-232 6 -232 5 -31 30 c-17 16 -37 50 -45 75 -7 25 -14 36 -14 25z"/>
<path d="M6563 2845 c0 -22 2 -30 4 -17 2 12 2 30 0 40 -3 9 -5 -1 -4 -23z"/>
<path d="M2691 2844 c-3 -82 69 -188 159 -235 43 -23 55 -24 297 -27 301 -4
331 1 413 75 53 47 90 110 89 148 -1 13 -4 9 -10 -11 -14 -49 -70 -126 -114
-156 -65 -44 -116 -50 -385 -46 -228 3 -248 5 -285 24 -88 47 -139 118 -155
214 -6 36 -8 39 -9 14z"/>
<path d="M7351 2854 c0 -11 -12 -35 -26 -54 -29 -39 -32 -48 -9 -29 23 19 46
68 41 87 -4 13 -5 12 -6 -4z"/>
<path d="M2840 2822 c0 -18 64 -82 82 -82 7 1 1 7 -13 15 -15 8 -36 29 -48 47
-11 18 -21 27 -21 20z"/>
<path d="M3468 2786 l-37 -41 -248 -5 -248 -6 233 -2 c258 -2 282 2 323 60 31
43 19 40 -23 -6z"/>
<path d="M7481 2797 c-4 -64 -96 -163 -178 -193 -21 -7 -30 -13 -20 -14 71 -1
219 150 204 208 -4 15 -5 15 -6 -1z"/>
<path d="M6570 2797 c0 -4 7 -24 15 -45 21 -50 79 -108 140 -140 l50 -27 245
-1 245 -1 -245 6 -245 6 -52 29 c-64 35 -98 70 -129 133 -13 26 -24 44 -24 40z"/>
<path d="M7270 2750 c-9 -6 -10 -10 -3 -10 6 0 15 5 18 10 8 12 4 12 -15 0z"/>
</g>
</svg>
