<?xml version="1.0" standalone="no"?>
<!DOCTYPE svg PUBLIC "-//W3C//DTD SVG 20010904//EN"
 "http://www.w3.org/TR/2001/REC-SVG-20010904/DTD/svg10.dtd">
<svg version="1.0" xmlns="http://www.w3.org/2000/svg"
 width="1024.000000pt" height="1024.000000pt" viewBox="0 0 1024.000000 1024.000000"
 preserveAspectRatio="xMidYMid meet">

<g transform="translate(0.000000,1024.000000) scale(0.100000,-0.100000)"
fill="#000000" stroke="none">
<path d="M6837 7902 c-9 -10 -21 -41 -27 -70 -7 -28 -23 -68 -37 -89 l-25 -38
26 25 c16 16 31 49 42 90 9 36 21 71 26 78 23 28 70 3 81 -43 5 -19 5 -19 6 1
1 23 -37 64 -61 64 -8 0 -22 -8 -31 -18z"/>
<path d="M6930 7817 c0 -25 24 -69 51 -92 l24 -20 -23 27 c-13 14 -30 43 -37
65 -8 21 -14 30 -15 20z"/>
<path d="M5032 7713 c37 -2 100 -2 140 0 40 1 10 3 -67 3 -77 0 -110 -1 -73
-3z"/>
<path d="M4830 7700 c-22 -5 -6 -6 40 -3 41 3 77 7 79 9 7 7 -83 2 -119 -6z"/>
<path d="M5283 7703 c15 -2 37 -2 50 0 12 2 0 4 -28 4 -27 0 -38 -2 -22 -4z"/>
<path d="M6683 7691 c-23 -9 -45 -20 -49 -24 -9 -9 69 18 94 32 25 15 3 11
-45 -8z"/>
<path d="M7067 7680 c48 -22 64 -35 69 -56 10 -38 -5 -56 -65 -78 -28 -10 -50
-21 -48 -23 3 -2 30 6 61 17 62 24 78 51 57 96 -10 22 -105 76 -129 73 -4 0
21 -13 55 -29z"/>
<path d="M5373 7693 c9 -2 23 -2 30 0 6 3 -1 5 -18 5 -16 0 -22 -2 -12 -5z"/>
<path d="M4651 7665 c-52 -14 -97 -28 -100 -31 -3 -4 5 -4 19 0 14 4 70 18
125 31 55 13 89 24 75 24 -14 0 -67 -11 -119 -24z"/>
<path d="M5433 7683 c9 -2 23 -2 30 0 6 3 -1 5 -18 5 -16 0 -22 -2 -12 -5z"/>
<path d="M5488 7673 c6 -2 18 -2 25 0 6 3 1 5 -13 5 -14 0 -19 -2 -12 -5z"/>
<path d="M5671 7621 c80 -27 160 -56 178 -66 18 -9 35 -14 37 -12 11 11 -312
128 -349 127 -6 -1 54 -23 134 -49z"/>
<path d="M6591 7612 c-1 -28 15 -62 31 -62 6 0 5 7 -5 18 -8 9 -17 28 -20 42
-4 24 -4 24 -6 2z"/>
<path d="M4442 7599 c-29 -12 -51 -23 -49 -25 4 -4 107 33 116 42 9 9 -16 2
-67 -17z"/>
<path d="M4340 7555 c-14 -8 -20 -14 -15 -14 6 0 21 6 35 14 14 8 21 14 15 14
-5 0 -21 -6 -35 -14z"/>
<path d="M5088 7553 c18 -2 45 -2 60 0 15 2 0 4 -33 4 -33 0 -45 -2 -27 -4z"/>
<path d="M4948 7543 c18 -2 45 -2 60 0 15 2 0 4 -33 4 -33 0 -45 -2 -27 -4z"/>
<path d="M5260 7541 c163 -20 177 -21 140 -11 -19 5 -73 12 -120 14 -77 4 -79
4 -20 -3z"/>
<path d="M6660 7539 c14 -6 48 -22 75 -35 29 -14 42 -17 30 -8 -22 18 -67 38
-105 48 l-25 6 25 -11z"/>
<path d="M4290 7530 c-9 -6 -10 -10 -3 -10 6 0 15 5 18 10 8 12 4 12 -15 0z"/>
<path d="M4810 7530 c-50 -11 1 -11 60 -1 41 8 42 8 10 8 -19 0 -51 -3 -70 -7z"/>
<path d="M5920 7526 c0 -2 7 -7 16 -10 8 -3 12 -2 9 4 -6 10 -25 14 -25 6z"/>
<path d="M4210 7489 c-30 -16 -59 -35 -65 -41 -11 -11 103 49 120 64 16 15 1
8 -55 -23z"/>
<path d="M4655 7495 c-168 -50 -390 -152 -460 -211 -21 -17 -14 -15 25 9 135
84 303 156 470 202 47 13 76 24 65 24 -11 0 -56 -11 -100 -24z"/>
<path d="M5505 7499 c39 -10 74 -17 80 -16 11 4 -118 37 -137 36 -7 0 19 -9
57 -20z"/>
<path d="M6969 7491 c-16 -16 -29 -38 -28 -48 0 -13 3 -12 10 7 5 14 22 35 37
47 15 13 23 23 19 23 -5 0 -22 -13 -38 -29z"/>
<path d="M5960 7506 c0 -2 26 -19 58 -36 31 -18 99 -62 151 -97 51 -35 90 -59
86 -53 -15 25 -295 201 -295 186z"/>
<path d="M5705 7436 c114 -47 229 -107 308 -159 37 -25 64 -41 61 -35 -25 40
-389 230 -438 228 -6 -1 25 -16 69 -34z"/>
<path d="M6786 7457 c3 -10 9 -15 12 -12 3 3 0 11 -7 18 -10 9 -11 8 -5 -6z"/>
<path d="M4064 7399 c-112 -78 -263 -214 -338 -304 -22 -27 13 4 79 70 102
103 198 183 305 257 14 9 22 17 19 17 -3 1 -32 -18 -65 -40z"/>
<path d="M6806 7400 c4 -19 10 -42 15 -50 11 -18 1 34 -13 65 -5 13 -6 9 -2
-15z"/>
<path d="M6932 7400 c0 -14 2 -19 5 -12 2 6 2 18 0 25 -3 6 -5 1 -5 -13z"/>
<path d="M6920 7357 c0 -9 -10 -26 -22 -38 -23 -21 -23 -21 -1 -10 22 11 40
47 29 58 -3 4 -6 -1 -6 -10z"/>
<path d="M6837 7319 c7 -7 15 -10 18 -7 3 3 -2 9 -12 12 -14 6 -15 5 -6 -5z"/>
<path d="M6352 7231 c90 -85 218 -236 277 -328 35 -57 54 -73 24 -22 -63 106
-223 293 -324 378 -46 38 -39 30 23 -28z"/>
<path d="M7263 7280 c20 -4 49 -18 63 -31 23 -21 25 -30 21 -72 -2 -29 -1 -43
4 -35 5 7 9 29 9 48 0 56 -49 101 -107 99 -24 -1 -22 -2 10 -9z"/>
<path d="M7175 7248 c-23 -27 -26 -39 -22 -73 7 -50 53 -95 98 -95 28 0 89 24
89 36 0 2 -13 -2 -30 -11 -56 -29 -109 -16 -135 35 -23 44 -19 78 14 111 16
16 26 29 21 29 -4 0 -20 -14 -35 -32z"/>
<path d="M4075 7197 c-209 -166 -372 -375 -472 -607 -19 -45 -33 -83 -31 -85
2 -3 18 30 36 73 39 94 110 220 177 310 69 93 214 241 302 309 65 50 80 63 70
63 -1 0 -38 -28 -82 -63z"/>
<path d="M6110 7211 c101 -85 227 -210 286 -284 99 -127 109 -138 73 -82 -77
118 -261 308 -360 371 -23 15 -23 15 1 -5z"/>
<path d="M5318 7053 c12 -2 32 -2 45 0 12 2 2 4 -23 4 -25 0 -35 -2 -22 -4z"/>
<path d="M5242 7023 c-17 -16 -52 -57 -77 -93 -39 -56 -40 -59 -8 -20 21 25
58 66 84 93 51 52 52 63 1 20z"/>
<path d="M5391 7048 c2 -2 16 -14 32 -27 15 -14 27 -22 27 -18 0 10 -42 47
-54 47 -5 0 -7 -1 -5 -2z"/>
<path d="M3654 7008 l-19 -23 23 19 c12 11 22 21 22 23 0 8 -8 2 -26 -19z"/>
<path d="M5451 6974 c0 -11 3 -14 6 -6 3 7 2 16 -1 19 -3 4 -6 -2 -5 -13z"/>
<path d="M3574 6894 c-31 -47 -54 -87 -53 -89 2 -1 30 37 61 86 31 49 55 89
52 89 -2 0 -30 -39 -60 -86z"/>
<path d="M5446 6879 c-4 -33 -5 -63 -3 -66 3 -2 8 23 12 57 4 34 5 63 2 66 -2
3 -7 -23 -11 -57z"/>
<path d="M4989 6698 c-67 -90 -126 -169 -132 -175 -5 -7 -7 -13 -4 -13 3 0 52
62 109 138 146 195 159 212 153 212 -2 0 -59 -73 -126 -162z"/>
<path d="M6728 6733 c31 -61 58 -110 60 -108 4 4 -83 176 -102 200 -9 11 10
-30 42 -92z"/>
<path d="M5249 6782 c-15 -20 -42 -57 -61 -82 -30 -39 -122 -163 -373 -505
-28 -38 -96 -131 -151 -205 -110 -148 -155 -213 -132 -190 8 8 97 128 198 265
101 138 234 318 295 400 144 193 228 307 237 319 16 23 17 -6 2 -88 -8 -48
-13 -93 -11 -99 3 -11 37 177 37 208 0 24 -13 17 -41 -23z"/>
<path d="M5392 6530 c-23 -151 -45 -303 -49 -337 l-6 -63 254 2 254 3 -247 2
c-236 3 -248 4 -248 22 0 23 41 305 70 485 12 70 20 136 18 145 -2 9 -22 -108
-46 -259z"/>
<path d="M3476 6723 c-37 -75 -106 -255 -106 -275 1 -7 17 30 35 82 19 52 53
132 75 178 47 98 44 110 -4 15z"/>
<path d="M6541 6715 c23 -44 46 -84 52 -90 14 -15 -59 127 -77 150 -9 11 2
-16 25 -60z"/>
<path d="M6601 6605 c0 -5 6 -21 14 -35 8 -14 14 -20 14 -15 0 6 -6 21 -14 35
-8 14 -14 21 -14 15z"/>
<path d="M6795 6595 c4 -11 17 -49 29 -85 33 -94 65 -230 81 -345 l14 -100 -5
83 c-7 116 -77 392 -114 449 -10 16 -11 16 -5 -2z"/>
<path d="M5242 6550 c0 -19 2 -27 5 -17 2 9 2 25 0 35 -3 9 -5 1 -5 -18z"/>
<path d="M6630 6535 c0 -5 5 -17 10 -25 5 -8 10 -10 10 -5 0 6 -5 17 -10 25
-5 8 -10 11 -10 5z"/>
<path d="M5220 6415 c-7 -53 -10 -98 -8 -101 3 -2 11 39 18 91 6 53 10 99 7
101 -2 3 -10 -38 -17 -91z"/>
<path d="M4788 6428 c-55 -73 -271 -368 -405 -550 -39 -54 -77 -114 -83 -134
-14 -43 -7 -90 21 -124 18 -23 18 -22 -2 18 -38 76 -25 106 146 337 45 61 146
198 225 305 78 107 147 201 153 208 5 6 7 12 4 12 -3 0 -30 -33 -59 -72z"/>
<path d="M3551 6459 c-6 -18 -11 -37 -10 -43 0 -6 7 7 15 28 8 22 12 41 10 43
-2 2 -9 -10 -15 -28z"/>
<path d="M6650 6487 c0 -2 9 -29 19 -60 18 -51 55 -219 64 -292 l4 -30 2 31
c2 59 -68 354 -85 354 -2 0 -4 -2 -4 -3z"/>
<path d="M3356 6404 c-4 -14 -5 -28 -3 -31 3 -2 8 8 11 23 4 14 5 28 3 31 -3
2 -8 -8 -11 -23z"/>
<path d="M3516 6333 c-31 -134 -37 -190 -41 -358 l-3 -170 8 155 c8 165 22
278 46 374 8 32 13 60 11 63 -3 2 -12 -27 -21 -64z"/>
<path d="M3326 6273 c-10 -48 -19 -124 -21 -168 l-4 -80 8 75 c5 41 16 115 25
164 10 48 15 90 13 93 -3 2 -12 -36 -21 -84z"/>
<path d="M5195 6217 c-4 -47 -5 -91 -3 -99 3 -7 8 29 12 81 4 51 5 95 2 98 -2
2 -7 -34 -11 -80z"/>
<path d="M5858 6123 c7 -3 16 -2 19 1 4 3 -2 6 -13 5 -11 0 -14 -3 -6 -6z"/>
<path d="M5918 6092 c37 -35 53 -88 42 -139 -12 -50 -4 -55 9 -7 7 27 7 50 0
79 -10 39 -53 95 -72 95 -5 0 4 -13 21 -28z"/>
<path d="M6744 5935 c0 -93 2 -133 3 -88 2 45 2 122 0 170 -1 48 -3 12 -3 -82z"/>
<path d="M5191 6072 c-1 -25 57 -92 79 -92 7 0 -2 10 -21 23 -19 13 -39 38
-46 57 -10 28 -12 30 -12 12z"/>
<path d="M6924 5950 c0 -63 1 -89 3 -57 2 31 2 83 0 115 -2 31 -3 5 -3 -58z"/>
<path d="M3296 5883 c4 -133 23 -280 44 -348 10 -29 10 -29 5 5 -3 19 -12 73
-20 120 -8 47 -19 148 -24 225 l-10 140 5 -142z"/>
<path d="M5413 5973 c70 -2 184 -2 255 0 70 1 12 3 -128 3 -140 0 -198 -2
-127 -3z"/>
<path d="M5753 5907 c-16 -23 -83 -112 -148 -197 -66 -85 -222 -292 -348 -460
-127 -168 -246 -324 -265 -348 -19 -24 -32 -45 -30 -47 2 -2 82 100 178 228
96 127 282 373 413 545 131 173 237 316 235 318 -3 2 -18 -15 -35 -39z"/>
<path d="M5915 5858 c-16 -24 -79 -108 -140 -188 -61 -80 -189 -248 -285 -375
-294 -391 -487 -638 -529 -680 -32 -30 -52 -41 -89 -46 -45 -6 -46 -6 -9 -8
82 -3 75 -11 504 556 92 122 253 333 356 470 181 238 234 313 224 313 -2 0
-17 -19 -32 -42z"/>
<path d="M6913 5785 c0 -27 2 -38 4 -22 2 15 2 37 0 50 -2 12 -4 0 -4 -28z"/>
<path d="M3483 5750 c0 -25 2 -35 4 -22 2 12 2 32 0 45 -2 12 -4 2 -4 -23z"/>
<path d="M4490 5750 l-21 -30 253 0 c139 0 269 -4 287 -10 28 -8 32 -7 22 3
-9 9 -84 13 -277 15 l-265 3 15 25 c23 34 12 30 -14 -6z"/>
<path d="M6726 5699 c-4 -33 -5 -63 -3 -66 3 -2 8 23 12 57 4 34 5 63 2 66 -2
3 -7 -23 -11 -57z"/>
<path d="M6900 5698 c0 -18 -11 -82 -25 -142 -14 -60 -23 -111 -21 -113 6 -6
47 175 53 235 3 28 3 52 -1 52 -3 0 -6 -15 -6 -32z"/>
<path d="M3491 5680 c0 -14 6 -52 13 -85 18 -78 19 -40 1 45 -7 36 -13 54 -14
40z"/>
<path d="M5069 5672 c13 -18 25 -50 28 -70 4 -32 -46 -259 -122 -552 -7 -30
-21 -89 -29 -130 -9 -41 -19 -86 -22 -99 -5 -16 -3 -22 3 -18 6 4 14 28 18 54
7 49 67 303 130 556 19 76 35 152 35 168 0 38 -22 90 -46 109 -14 12 -13 8 5
-18z"/>
<path d="M6696 5544 c-62 -264 -198 -522 -441 -839 -235 -306 -306 -464 -399
-885 -13 -58 -26 -114 -30 -125 -4 -11 0 -7 9 8 9 16 27 84 41 153 68 347 162
554 387 846 180 234 298 430 371 614 38 97 90 278 84 296 -2 6 -12 -25 -22
-68z"/>
<path d="M4354 5591 c15 -24 92 -31 328 -31 l247 0 4 -22 c5 -20 5 -20 4 2
l-2 25 -270 5 c-201 4 -276 8 -294 18 -13 8 -20 9 -17 3z"/>
<path d="M3521 5522 c-1 -21 32 -128 35 -117 2 6 -5 37 -16 70 -10 33 -19 54
-19 47z"/>
<path d="M4922 5490 c0 -14 2 -19 5 -12 2 6 2 18 0 25 -3 6 -5 1 -5 -13z"/>
<path d="M3351 5484 c0 -11 3 -14 6 -6 3 7 2 16 -1 19 -3 4 -6 -2 -5 -13z"/>
<path d="M3361 5445 c0 -11 6 -33 14 -50 17 -39 18 -11 0 35 -9 23 -14 28 -14
15z"/>
<path d="M4904 5426 c-3 -21 -4 -39 -1 -42 2 -3 8 11 11 32 4 20 5 38 2 41 -2
3 -8 -11 -12 -31z"/>
<path d="M6841 5423 c-1 -6 -4 -20 -7 -30 -5 -17 -5 -17 6 0 6 10 9 23 6 30
-3 9 -5 9 -5 0z"/>
<path d="M4867 5258 c-94 -393 -120 -510 -124 -564 -5 -57 -4 -61 27 -92 17
-18 36 -32 41 -32 5 0 -6 14 -26 31 -29 26 -35 38 -35 71 0 33 87 431 136 621
8 33 14 63 12 69 -2 5 -16 -41 -31 -104z"/>
<path d="M3570 5355 c0 -5 5 -17 10 -25 5 -8 10 -10 10 -5 0 6 -5 17 -10 25
-5 8 -10 11 -10 5z"/>
<path d="M6795 5293 c-69 -185 -226 -447 -400 -668 -136 -173 -239 -349 -293
-500 -26 -72 -72 -244 -71 -265 0 -8 16 41 34 110 60 222 142 389 290 585 155
206 255 351 314 455 60 105 157 317 148 326 -2 2 -12 -17 -22 -43z"/>
<path d="M3400 5326 c0 -25 134 -316 145 -316 3 0 -10 31 -30 69 -19 38 -51
109 -71 158 -36 86 -44 103 -44 89z"/>
<path d="M3590 5305 c0 -13 72 -166 77 -162 2 2 -15 42 -37 88 -22 46 -40 80
-40 74z"/>
<path d="M3704 5065 c21 -38 43 -74 48 -80 13 -13 -61 126 -75 140 -6 6 7 -21
27 -60z"/>
<path d="M3566 4968 c24 -46 123 -196 134 -203 6 -3 -15 31 -46 77 -31 46 -64
100 -75 121 -11 20 -22 37 -24 37 -3 0 2 -15 11 -32z"/>
<path d="M3777 4939 c10 -17 69 -99 132 -183 179 -237 217 -301 340 -566 l11
-25 -6 25 c-10 42 -100 226 -151 308 -26 42 -95 140 -153 217 -59 77 -123 166
-144 198 -40 61 -59 78 -29 26z"/>
<path d="M3749 4692 c11 -16 28 -35 38 -43 9 -8 2 5 -17 29 -38 48 -52 57 -21
14z"/>
<path d="M3863 4545 c35 -49 83 -123 107 -162 23 -40 44 -73 47 -73 15 0 -130
226 -187 290 -17 19 -2 -5 33 -55z"/>
<path d="M4021 4295 c0 -5 13 -35 29 -65 16 -30 29 -50 29 -45 0 6 -13 35 -29
65 -16 30 -29 51 -29 45z"/>
<path d="M4080 4167 c0 -2 13 -39 29 -84 17 -44 46 -152 67 -239 41 -179 56
-225 92 -272 28 -39 78 -72 107 -72 11 1 2 7 -20 15 -44 15 -88 61 -112 115
-8 19 -32 110 -54 201 -34 147 -94 339 -105 339 -2 0 -4 -1 -4 -3z"/>
<path d="M4271 4130 c-1 -13 58 -213 58 -202 1 19 -39 174 -50 192 -4 8 -8 13
-8 10z"/>
<path d="M4332 3890 c0 -14 2 -19 5 -12 2 6 2 18 0 25 -3 6 -5 1 -5 -13z"/>
<path d="M4342 3840 c0 -14 2 -19 5 -12 2 6 2 18 0 25 -3 6 -5 1 -5 -13z"/>
<path d="M6022 3820 c0 -14 2 -19 5 -12 2 6 2 18 0 25 -3 6 -5 1 -5 -13z"/>
<path d="M4356 3775 c8 -55 25 -87 54 -102 19 -10 177 -13 707 -13 375 0 684
3 686 8 3 4 -297 6 -666 4 -370 -1 -687 0 -704 3 -36 6 -49 24 -70 95 l-13 45
6 -40z"/>
<path d="M6012 3770 c0 -14 2 -19 5 -12 2 6 2 18 0 25 -3 6 -5 1 -5 -13z"/>
<path d="M6001 3724 c0 -11 3 -14 6 -6 3 7 2 16 -1 19 -3 4 -6 -2 -5 -13z"/>
<path d="M5982 3657 c-19 -62 -54 -107 -105 -135 -24 -13 -31 -20 -17 -16 44
11 88 52 115 108 15 30 25 62 23 72 -1 9 -9 -4 -16 -29z"/>
<path d="M4758 3493 c200 -2 524 -2 720 0 196 1 33 2 -363 2 -396 0 -557 -1
-357 -2z"/>
<path d="M4435 3320 c-11 -4 -29 -18 -40 -30 -18 -20 -20 -36 -20 -204 1 -203
12 -261 65 -334 27 -38 86 -80 96 -69 3 2 -10 10 -27 17 -41 17 -85 80 -106
149 -13 43 -17 99 -17 237 -1 203 4 220 68 226 19 2 25 5 16 9 -8 4 -24 3 -35
-1z"/>
<path d="M5742 3304 c-12 -8 -22 -23 -21 -32 0 -13 3 -11 9 5 5 13 23 26 42
32 21 6 26 10 13 10 -11 1 -31 -6 -43 -15z"/>
<path d="M4509 3276 l16 -35 600 2 600 2 -597 2 c-576 3 -597 4 -603 22 -3 11
-12 24 -19 30 -10 8 -9 2 3 -23z"/>
<path d="M5827 3290 c32 -42 40 -225 18 -400 -4 -30 -4 -31 4 -10 13 39 24
261 16 325 -5 37 -15 65 -29 79 -11 12 -16 15 -9 6z"/>
<path d="M5112 3093 l597 -3 4 -88 3 -87 2 93 2 92 -602 -2 -603 -3 597 -2z"/>
<path d="M4511 3054 c0 -11 3 -14 6 -6 3 7 2 16 -1 19 -3 4 -6 -2 -5 -13z"/>
<path d="M4521 2957 c-1 -51 9 -78 42 -114 l20 -23 538 0 537 0 26 31 c14 17
26 38 26 47 -1 10 -7 4 -14 -13 -25 -58 1 -55 -581 -53 l-538 3 -21 28 c-13
17 -23 51 -27 85 l-6 57 -2 -48z"/>
<path d="M5810 2796 c-14 -28 -42 -64 -63 -81 l-39 -30 -581 -5 -582 -5 460
-4 c730 -5 711 -6 769 55 30 31 69 101 64 113 -2 4 -14 -15 -28 -43z"/>
<path d="M5510 2641 c27 -7 52 -47 46 -71 -2 -8 -7 -28 -10 -45 -5 -24 -4 -27
4 -12 32 52 4 138 -44 136 -18 -1 -18 -2 4 -8z"/>
<path d="M4678 2615 c-8 -18 -8 -33 0 -57 l11 -33 -5 36 c-3 20 -1 46 5 58 7
12 9 21 6 21 -3 0 -11 -11 -17 -25z"/>
<path d="M4772 2613 c17 -41 30 -53 17 -15 -6 18 -15 35 -20 38 -5 3 -4 -7 3
-23z"/>
<path d="M5456 2605 c-4 -19 -19 -49 -33 -67 l-27 -33 26 24 c27 23 65 111 49
111 -5 0 -12 -16 -15 -35z"/>
<path d="M4800 2556 c0 -11 46 -47 86 -66 37 -18 62 -21 236 -21 153 0 204 3
232 15 49 21 46 29 -5 11 -31 -11 -91 -15 -231 -15 -203 0 -226 4 -285 54 -18
15 -33 25 -33 22z"/>
<path d="M4690 2517 c-2 -38 88 -130 165 -167 49 -24 57 -25 270 -25 l220 0
59 30 c54 27 136 105 136 129 0 6 -11 -6 -25 -26 -32 -47 -94 -90 -163 -112
-44 -15 -83 -17 -250 -14 -180 3 -201 5 -243 26 -61 30 -125 86 -149 131 -10
20 -19 32 -20 28z"/>
</g>
</svg>
