<?xml version="1.0" standalone="no"?>
<!DOCTYPE svg PUBLIC "-//W3C//DTD SVG 20010904//EN"
 "http://www.w3.org/TR/2001/REC-SVG-20010904/DTD/svg10.dtd">
<svg version="1.0" xmlns="http://www.w3.org/2000/svg"
 width="1024.000000pt" height="1024.000000pt" viewBox="0 0 1024.000000 1024.000000"
 preserveAspectRatio="xMidYMid meet">

<g transform="translate(0.000000,1024.000000) scale(0.100000,-0.100000)"
fill="#000000" stroke="none">
<path d="M7069 8373 c-13 -16 -12 -17 4 -4 9 7 17 15 17 17 0 8 -8 3 -21 -13z"/>
<path d="M7148 8383 c7 -3 16 -2 19 1 4 3 -2 6 -13 5 -11 0 -14 -3 -6 -6z"/>
<path d="M7052 8325 c0 -16 2 -22 5 -12 2 9 2 23 0 30 -3 6 -5 -1 -5 -18z"/>
<path d="M7108 8263 c7 -3 16 -2 19 1 4 3 -2 6 -13 5 -11 0 -14 -3 -6 -6z"/>
<path d="M7449 8205 c75 -83 90 -97 54 -50 -17 22 -48 56 -69 75 -25 23 -20
14 15 -25z"/>
<path d="M7210 8226 c0 -3 9 -10 20 -16 11 -6 20 -8 20 -6 0 3 -9 10 -20 16
-11 6 -20 8 -20 6z"/>
<path d="M7315 8150 c10 -11 20 -20 23 -20 3 0 -3 9 -13 20 -10 11 -20 20 -23
20 -3 0 3 -9 13 -20z"/>
<path d="M7390 8076 c0 -2 8 -10 18 -17 15 -13 16 -12 3 4 -13 16 -21 21 -21
13z"/>
<path d="M7175 8040 c10 -11 20 -20 23 -20 3 0 -3 9 -13 20 -10 11 -20 20 -23
20 -3 0 3 -9 13 -20z"/>
<path d="M7596 7997 c3 -10 9 -15 12 -12 3 3 0 11 -7 18 -10 9 -11 8 -5 -6z"/>
<path d="M7130 7908 c41 -45 50 -53 50 -45 0 2 -21 23 -47 47 l-48 45 45 -47z"/>
<path d="M7341 7825 c1 -19 18 -51 18 -35 0 8 -4 22 -9 30 -5 8 -9 11 -9 5z"/>
<path d="M7361 7754 c0 -11 3 -14 6 -6 3 7 2 16 -1 19 -3 4 -6 -2 -5 -13z"/>
<path d="M7540 7753 c0 -6 8 -17 18 -24 16 -13 16 -13 2 6 -8 11 -16 22 -17
24 -2 2 -3 0 -3 -6z"/>
<path d="M7639 7733 c-13 -16 -12 -17 4 -4 9 7 17 15 17 17 0 8 -8 3 -21 -13z"/>
<path d="M6928 7713 c7 -3 16 -2 19 1 4 3 -2 6 -13 5 -11 0 -14 -3 -6 -6z"/>
<path d="M7000 7716 c0 -2 7 -7 16 -10 8 -3 12 -2 9 4 -6 10 -25 14 -25 6z"/>
<path d="M7372 7695 c0 -16 2 -22 5 -12 2 9 2 23 0 30 -3 6 -5 -1 -5 -18z"/>
<path d="M7250 7671 c0 -10 39 -46 43 -40 2 2 -7 14 -20 26 -13 12 -23 19 -23
14z"/>
<path d="M7346 7645 c-11 -8 -15 -15 -9 -15 6 0 16 7 23 15 16 19 11 19 -14 0z"/>
<path d="M6635 7610 c-3 -6 1 -7 9 -4 18 7 21 14 7 14 -6 0 -13 -4 -16 -10z"/>
<path d="M6938 7583 c7 -3 16 -2 19 1 4 3 -2 6 -13 5 -11 0 -14 -3 -6 -6z"/>
<path d="M6469 7513 c-13 -16 -12 -17 4 -4 9 7 17 15 17 17 0 8 -8 3 -21 -13z"/>
<path d="M6624 7454 c-18 -14 -18 -15 4 -4 12 6 22 13 22 15 0 8 -5 6 -26 -11z"/>
<path d="M6334 7398 c-44 -49 -68 -78 -62 -78 2 0 26 25 52 55 51 60 58 75 10
23z"/>
<path d="M6494 7368 l-19 -23 23 19 c21 18 27 26 19 26 -2 0 -12 -10 -23 -22z"/>
<path d="M6409 7283 l-24 -28 28 24 c25 23 32 31 24 31 -2 0 -14 -12 -28 -27z"/>
<path d="M6239 7283 c-13 -16 -12 -17 4 -4 9 7 17 15 17 17 0 8 -8 3 -21 -13z"/>
<path d="M6369 7233 c-13 -16 -12 -17 4 -4 9 7 17 15 17 17 0 8 -8 3 -21 -13z"/>
<path d="M6334 7188 l-19 -23 23 19 c21 18 27 26 19 26 -2 0 -12 -10 -23 -22z"/>
<path d="M6299 7143 c-13 -16 -12 -17 4 -4 9 7 17 15 17 17 0 8 -8 3 -21 -13z"/>
<path d="M5869 7033 c-13 -16 -12 -17 4 -4 9 7 17 15 17 17 0 8 -8 3 -21 -13z"/>
<path d="M5819 6993 c-13 -16 -12 -17 4 -4 9 7 17 15 17 17 0 8 -8 3 -21 -13z"/>
<path d="M5994 6968 c-19 -23 -19 -23 1 -7 11 9 27 19 35 22 13 5 13 6 -1 6
-9 1 -24 -9 -35 -21z"/>
<path d="M6050 6976 c0 -2 7 -7 16 -10 8 -3 12 -2 9 4 -6 10 -25 14 -25 6z"/>
<path d="M5759 6943 c-13 -16 -12 -17 4 -4 9 7 17 15 17 17 0 8 -8 3 -21 -13z"/>
<path d="M5939 6923 c-13 -16 -12 -17 4 -4 9 7 17 15 17 17 0 8 -8 3 -21 -13z"/>
<path d="M5719 6913 c-13 -16 -12 -17 4 -4 9 7 17 15 17 17 0 8 -8 3 -21 -13z"/>
<path d="M6272 6880 c0 -19 2 -27 5 -17 2 9 2 25 0 35 -3 9 -5 1 -5 -18z"/>
<path d="M5665 6874 l-30 -26 33 22 c17 12 32 23 32 26 0 7 -4 5 -35 -22z"/>
<path d="M5884 6878 l-19 -23 23 19 c21 18 27 26 19 26 -2 0 -12 -10 -23 -22z"/>
<path d="M5834 6838 l-19 -23 23 19 c12 11 22 21 22 23 0 8 -8 2 -26 -19z"/>
<path d="M5789 6803 c-13 -16 -12 -17 4 -4 9 7 17 15 17 17 0 8 -8 3 -21 -13z"/>
<path d="M5744 6768 l-19 -23 23 19 c21 18 27 26 19 26 -2 0 -12 -10 -23 -22z"/>
<path d="M5607 6676 c-73 -50 -110 -80 -77 -61 34 19 160 106 160 110 0 7 1 8
-83 -49z"/>
<path d="M6065 6709 c-4 -6 -5 -12 -2 -15 2 -3 7 2 10 11 7 17 1 20 -8 4z"/>
<path d="M6040 6659 c-7 -11 -10 -23 -7 -25 2 -2 9 7 15 21 14 30 7 33 -8 4z"/>
<path d="M5478 6594 c-38 -20 -36 -28 2 -9 17 9 30 18 30 20 0 7 -1 6 -32 -11z"/>
<path d="M5204 6568 l-19 -23 23 19 c21 18 27 26 19 26 -2 0 -12 -10 -23 -22z"/>
<path d="M6126 6545 c-9 -26 -7 -32 5 -12 6 10 9 21 6 23 -2 3 -7 -2 -11 -11z"/>
<path d="M5149 6503 c-13 -16 -12 -17 4 -4 9 7 17 15 17 17 0 8 -8 3 -21 -13z"/>
<path d="M5109 6453 c-13 -16 -12 -17 4 -4 9 7 17 15 17 17 0 8 -8 3 -21 -13z"/>
<path d="M5250 6418 l-32 -43 35 39 c23 26 39 36 47 31 9 -5 11 -4 6 3 -12 20
-23 14 -56 -30z"/>
<path d="M5470 6456 c0 -2 8 -10 18 -17 15 -13 16 -12 3 4 -13 16 -21 21 -21
13z"/>
<path d="M5069 6403 c-13 -16 -12 -17 4 -4 9 7 17 15 17 17 0 8 -8 3 -21 -13z"/>
<path d="M5545 6380 c21 -22 41 -40 44 -40 3 0 -13 18 -34 40 -21 22 -41 40
-44 40 -3 0 13 -18 34 -40z"/>
<path d="M5926 6395 c-9 -26 -7 -32 5 -12 6 10 9 21 6 23 -2 3 -7 -2 -11 -11z"/>
<path d="M5340 6396 c0 -2 8 -10 18 -17 15 -13 16 -12 3 4 -13 16 -21 21 -21
13z"/>
<path d="M5024 6348 l-19 -23 23 19 c21 18 27 26 19 26 -2 0 -12 -10 -23 -22z"/>
<path d="M5194 6348 l-19 -23 23 19 c21 18 27 26 19 26 -2 0 -12 -10 -23 -22z"/>
<path d="M6046 6355 c-9 -26 -7 -32 5 -12 6 10 9 21 6 23 -2 3 -7 -2 -11 -11z"/>
<path d="M5420 6315 c13 -14 26 -25 28 -25 3 0 -5 11 -18 25 -13 14 -26 25
-28 25 -3 0 5 -11 18 -25z"/>
<path d="M4984 6298 l-19 -23 23 19 c12 11 22 21 22 23 0 8 -8 2 -26 -19z"/>
<path d="M5154 6298 l-19 -23 23 19 c21 18 27 26 19 26 -2 0 -12 -10 -23 -22z"/>
<path d="M5886 6295 c-9 -26 -7 -32 5 -12 6 10 9 21 6 23 -2 3 -7 -2 -11 -11z"/>
<path d="M5640 6296 c0 -2 8 -10 18 -17 15 -13 16 -12 3 4 -13 16 -21 21 -21
13z"/>
<path d="M4939 6243 l-24 -28 28 24 c25 23 32 31 24 31 -2 0 -14 -12 -28 -27z"/>
<path d="M5114 6248 l-19 -23 23 19 c21 18 27 26 19 26 -2 0 -12 -10 -23 -22z"/>
<path d="M5510 6235 c13 -14 26 -25 28 -25 3 0 -5 11 -18 25 -13 14 -26 25
-28 25 -3 0 5 -11 18 -25z"/>
<path d="M5710 6235 c13 -14 26 -25 28 -25 3 0 -5 11 -18 25 -13 14 -26 25
-28 25 -3 0 5 -11 18 -25z"/>
<path d="M5074 6198 l-19 -23 23 19 c12 11 22 21 22 23 0 8 -8 2 -26 -19z"/>
<path d="M4899 6193 c-13 -16 -12 -17 4 -4 9 7 17 15 17 17 0 8 -8 3 -21 -13z"/>
<path d="M5750 6206 c0 -2 8 -10 18 -17 15 -13 16 -12 3 4 -13 16 -21 21 -21
13z"/>
<path d="M5034 6148 l-19 -23 23 19 c12 11 22 21 22 23 0 8 -8 2 -26 -19z"/>
<path d="M5956 6125 c-9 -26 -7 -32 5 -12 6 10 9 21 6 23 -2 3 -7 -2 -11 -11z"/>
<path d="M4829 6103 c-13 -16 -12 -17 4 -4 9 7 17 15 17 17 0 8 -8 3 -21 -13z"/>
<path d="M5650 6116 c0 -2 8 -10 18 -17 15 -13 16 -12 3 4 -13 16 -21 21 -21
13z"/>
<path d="M4964 6063 c-21 -27 -53 -68 -72 -93 -33 -43 -33 -44 -3 -10 43 47
123 150 118 150 -3 0 -22 -21 -43 -47z"/>
<path d="M4794 6058 l-19 -23 23 19 c21 18 27 26 19 26 -2 0 -12 -10 -23 -22z"/>
<path d="M5926 6055 c-9 -26 -7 -32 5 -12 6 10 9 21 6 23 -2 3 -7 -2 -11 -11z"/>
<path d="M4730 5980 c-17 -22 -29 -40 -27 -40 3 0 20 18 37 40 17 22 29 40 27
40 -3 0 -20 -18 -37 -40z"/>
<path d="M5729 5983 c-13 -16 -12 -17 4 -4 16 13 21 21 13 21 -2 0 -10 -8 -17
-17z"/>
<path d="M5890 5980 c-6 -11 -8 -20 -6 -20 3 0 10 9 16 20 6 11 8 20 6 20 -3
0 -10 -9 -16 -20z"/>
<path d="M4669 5903 l-24 -28 28 24 c25 23 32 31 24 31 -2 0 -14 -12 -28 -27z"/>
<path d="M5674 5908 l-19 -23 23 19 c21 18 27 26 19 26 -2 0 -12 -10 -23 -22z"/>
<path d="M4810 5870 c-23 -27 -40 -50 -37 -50 3 0 24 23 47 50 23 28 40 50 37
50 -3 0 -24 -22 -47 -50z"/>
<path d="M5791 5843 c-29 -38 -36 -50 -16 -28 39 42 79 95 72 95 -2 0 -27 -30
-56 -67z"/>
<path d="M4629 5853 c-13 -16 -12 -17 4 -4 9 7 17 15 17 17 0 8 -8 3 -21 -13z"/>
<path d="M5624 5848 l-19 -23 23 19 c21 18 27 26 19 26 -2 0 -12 -10 -23 -22z"/>
<path d="M4594 5808 l-19 -23 23 19 c21 18 27 26 19 26 -2 0 -12 -10 -23 -22z"/>
<path d="M4744 5788 c-44 -51 -57 -68 -52 -68 3 0 22 20 42 45 38 46 45 63 10
23z"/>
<path d="M5579 5793 c-13 -16 -12 -17 4 -4 9 7 17 15 17 17 0 8 -8 3 -21 -13z"/>
<path d="M4554 5758 l-19 -23 23 19 c12 11 22 21 22 23 0 8 -8 2 -26 -19z"/>
<path d="M5709 5743 l-24 -28 28 24 c25 23 32 31 24 31 -2 0 -14 -12 -28 -27z"/>
<path d="M5539 5743 c-13 -16 -12 -17 4 -4 9 7 17 15 17 17 0 8 -8 3 -21 -13z"/>
<path d="M4519 5713 c-13 -16 -12 -17 4 -4 16 13 21 21 13 21 -2 0 -10 -8 -17
-17z"/>
<path d="M4664 5688 l-19 -23 23 19 c21 18 27 26 19 26 -2 0 -12 -10 -23 -22z"/>
<path d="M5494 5688 l-19 -23 23 19 c21 18 27 26 19 26 -2 0 -12 -10 -23 -22z"/>
<path d="M5620 5635 c-34 -41 -59 -75 -56 -75 2 0 32 34 66 75 34 41 59 75 56
75 -2 0 -32 -34 -66 -75z"/>
<path d="M4479 5663 l-24 -28 28 24 c25 23 32 31 24 31 -2 0 -14 -12 -28 -27z"/>
<path d="M4629 5643 c-13 -16 -12 -17 4 -4 9 7 17 15 17 17 0 8 -8 3 -21 -13z"/>
<path d="M5444 5628 c-44 -51 -57 -68 -52 -68 3 0 22 20 42 45 38 46 45 63 10
23z"/>
<path d="M4594 5598 l-19 -23 23 19 c21 18 27 26 19 26 -2 0 -12 -10 -23 -22z"/>
<path d="M4404 5568 l-19 -23 23 19 c21 18 27 26 19 26 -2 0 -12 -10 -23 -22z"/>
<path d="M4554 5548 l-19 -23 23 19 c12 11 22 21 22 23 0 8 -8 2 -26 -19z"/>
<path d="M5529 5523 l-24 -28 28 24 c25 23 32 31 24 31 -2 0 -14 -12 -28 -27z"/>
<path d="M4364 5518 l-19 -23 23 19 c21 18 27 26 19 26 -2 0 -12 -10 -23 -22z"/>
<path d="M5354 5518 l-19 -23 23 19 c21 18 27 26 19 26 -2 0 -12 -10 -23 -22z"/>
<path d="M4519 5503 c-13 -16 -12 -17 4 -4 9 7 17 15 17 17 0 8 -8 3 -21 -13z"/>
<path d="M4329 5473 c-13 -16 -12 -17 4 -4 16 13 21 21 13 21 -2 0 -10 -8 -17
-17z"/>
<path d="M5479 5463 l-24 -28 28 24 c25 23 32 31 24 31 -2 0 -14 -12 -28 -27z"/>
<path d="M4484 5458 l-19 -23 23 19 c21 18 27 26 19 26 -2 0 -12 -10 -23 -22z"/>
<path d="M5304 5458 l-19 -23 23 19 c21 18 27 26 19 26 -2 0 -12 -10 -23 -22z"/>
<path d="M4294 5428 l-19 -23 23 19 c12 11 22 21 22 23 0 8 -8 2 -26 -19z"/>
<path d="M4449 5413 c-13 -16 -12 -17 4 -4 16 13 21 21 13 21 -2 0 -10 -8 -17
-17z"/>
<path d="M5410 5380 c-23 -27 -40 -50 -37 -50 3 0 24 23 47 50 23 28 40 50 37
50 -3 0 -24 -22 -47 -50z"/>
<path d="M5249 5393 l-24 -28 28 24 c15 14 27 26 27 28 0 8 -8 1 -31 -24z"/>
<path d="M4254 5378 l-19 -23 23 19 c12 11 22 21 22 23 0 8 -8 2 -26 -19z"/>
<path d="M4370 5313 c-30 -38 -69 -87 -88 -110 -19 -24 -32 -43 -29 -43 3 0
40 44 83 98 99 125 97 122 92 122 -2 0 -29 -30 -58 -67z"/>
<path d="M4219 5333 c-13 -16 -12 -17 4 -4 9 7 17 15 17 17 0 8 -8 3 -21 -13z"/>
<path d="M5194 5328 l-19 -23 23 19 c21 18 27 26 19 26 -2 0 -12 -10 -23 -22z"/>
<path d="M5339 5293 l-24 -28 28 24 c15 14 27 26 27 28 0 8 -8 1 -31 -24z"/>
<path d="M4174 5278 l-19 -23 23 19 c21 18 27 26 19 26 -2 0 -12 -10 -23 -22z"/>
<path d="M5149 5273 l-24 -28 28 24 c15 14 27 26 27 28 0 8 -8 1 -31 -24z"/>
<path d="M4120 5210 c-17 -22 -29 -40 -27 -40 3 0 20 18 37 40 17 22 29 40 27
40 -3 0 -20 -18 -37 -40z"/>
<path d="M5254 5193 c-27 -31 -44 -54 -37 -50 14 9 97 107 90 107 -2 0 -26
-26 -53 -57z"/>
<path d="M5089 5203 l-24 -28 28 24 c25 23 32 31 24 31 -2 0 -14 -12 -28 -27z"/>
<path d="M4064 5138 l-19 -23 23 19 c21 18 27 26 19 26 -2 0 -12 -10 -23 -22z"/>
<path d="M5034 5138 l-19 -23 23 19 c21 18 27 26 19 26 -2 0 -12 -10 -23 -22z"/>
<path d="M4224 5128 l-19 -23 23 19 c21 18 27 26 19 26 -2 0 -12 -10 -23 -22z"/>
<path d="M5171 5097 l-25 -32 32 29 c33 31 37 36 25 35 -5 0 -19 -14 -32 -32z"/>
<path d="M4029 5093 c-13 -16 -12 -17 4 -4 9 7 17 15 17 17 0 8 -8 3 -21 -13z"/>
<path d="M4170 5060 c-17 -22 -29 -40 -27 -40 3 0 20 18 37 40 17 22 29 40 27
40 -3 0 -20 -18 -37 -40z"/>
<path d="M4984 5078 l-19 -23 23 19 c12 11 22 21 22 23 0 8 -8 2 -26 -19z"/>
<path d="M3980 5030 c-17 -22 -29 -40 -27 -40 3 0 20 18 37 40 17 22 29 40 27
40 -3 0 -20 -18 -37 -40z"/>
<path d="M5119 5033 l-24 -28 28 24 c15 14 27 26 27 28 0 8 -8 1 -31 -24z"/>
<path d="M4939 5023 l-24 -28 28 24 c25 23 32 31 24 31 -2 0 -14 -12 -28 -27z"/>
<path d="M4119 4993 c-13 -16 -12 -17 4 -4 16 13 21 21 13 21 -2 0 -10 -8 -17
-17z"/>
<path d="M5059 4963 l-24 -28 28 24 c25 23 32 31 24 31 -2 0 -14 -12 -28 -27z"/>
<path d="M3929 4963 c-13 -16 -12 -17 4 -4 16 13 21 21 13 21 -2 0 -10 -8 -17
-17z"/>
<path d="M4084 4948 c-43 -49 -98 -122 -87 -115 12 7 116 137 110 137 -2 0
-12 -10 -23 -22z"/>
<path d="M4879 4953 c-13 -16 -12 -17 4 -4 16 13 21 21 13 21 -2 0 -10 -8 -17
-17z"/>
<path d="M3889 4913 c-13 -16 -12 -17 4 -4 16 13 21 21 13 21 -2 0 -10 -8 -17
-17z"/>
<path d="M4979 4868 c-29 -35 -46 -57 -36 -49 20 16 101 111 94 111 -2 0 -28
-28 -58 -62z"/>
<path d="M4814 4878 l-19 -23 23 19 c12 11 22 21 22 23 0 8 -8 2 -26 -19z"/>
<path d="M3819 4823 c-29 -35 -41 -53 -36 -53 2 0 17 16 31 35 28 36 31 49 5
18z"/>
<path d="M4754 4808 l-19 -23 23 19 c12 11 22 21 22 23 0 8 -8 2 -26 -19z"/>
<path d="M4894 4768 l-29 -33 33 29 c17 17 32 31 32 33 0 8 -8 1 -36 -29z"/>
<path d="M3930 4750 c-17 -22 -29 -40 -27 -40 3 0 20 18 37 40 17 22 29 40 27
40 -3 0 -20 -18 -37 -40z"/>
<path d="M4704 4748 l-29 -33 33 29 c17 17 32 31 32 33 0 8 -8 1 -36 -29z"/>
<path d="M3740 4720 c-17 -22 -29 -40 -27 -40 3 0 20 18 37 40 17 22 29 40 27
40 -3 0 -20 -18 -37 -40z"/>
<path d="M4839 4703 l-24 -28 28 24 c25 23 32 31 24 31 -2 0 -14 -12 -28 -27z"/>
<path d="M3804 4588 c-48 -62 -94 -121 -102 -130 -8 -10 -13 -18 -9 -18 3 0
36 39 73 88 37 48 83 106 102 130 19 23 32 42 29 42 -3 0 -45 -51 -93 -112z"/>
<path d="M4639 4673 c-59 -67 -72 -83 -67 -83 3 0 27 25 53 55 47 56 59 78 14
28z"/>
<path d="M3684 4648 l-19 -23 23 19 c21 18 27 26 19 26 -2 0 -12 -10 -23 -22z"/>
<path d="M4774 4628 l-29 -33 33 29 c30 28 37 36 29 36 -2 0 -16 -15 -33 -32z"/>
<path d="M3649 4603 c-13 -16 -12 -17 4 -4 16 13 21 21 13 21 -2 0 -10 -8 -17
-17z"/>
<path d="M4724 4568 l-19 -23 23 19 c12 11 22 21 22 23 0 8 -8 2 -26 -19z"/>
<path d="M3614 4558 l-19 -23 23 19 c21 18 27 26 19 26 -2 0 -12 -10 -23 -22z"/>
<path d="M4529 4543 l-24 -28 28 24 c25 23 32 31 24 31 -2 0 -14 -12 -28 -27z"/>
<path d="M3579 4513 c-13 -16 -12 -17 4 -4 9 7 17 15 17 17 0 8 -8 3 -21 -13z"/>
<path d="M4664 4498 l-29 -33 33 29 c17 17 32 31 32 33 0 8 -8 1 -36 -29z"/>
<path d="M4464 4468 l-29 -33 33 29 c17 17 32 31 32 33 0 8 -8 1 -36 -29z"/>
<path d="M3549 4473 c-13 -16 -12 -17 4 -4 16 13 21 21 13 21 -2 0 -10 -8 -17
-17z"/>
<path d="M4604 4428 c-56 -63 -77 -88 -72 -88 3 0 28 27 57 60 55 63 66 83 15
28z"/>
<path d="M3519 4433 c-29 -35 -41 -53 -36 -53 2 0 17 16 31 35 28 36 31 49 5
18z"/>
<path d="M3650 4390 c-17 -22 -29 -40 -27 -40 3 0 20 18 37 40 17 22 29 40 27
40 -3 0 -20 -18 -37 -40z"/>
<path d="M4409 4403 c-13 -16 -12 -17 4 -4 16 13 21 21 13 21 -2 0 -10 -8 -17
-17z"/>
<path d="M3454 4348 l-19 -23 23 19 c21 18 27 26 19 26 -2 0 -12 -10 -23 -22z"/>
<path d="M4489 4293 l-34 -38 38 34 c20 19 37 36 37 38 0 8 -8 0 -41 -34z"/>
<path d="M3414 4298 l-19 -23 23 19 c12 11 22 21 22 23 0 8 -8 2 -26 -19z"/>
<path d="M3574 4288 l-19 -23 23 19 c12 11 22 21 22 23 0 8 -8 2 -26 -19z"/>
<path d="M4289 4263 l-24 -28 28 24 c25 23 32 31 24 31 -2 0 -14 -12 -28 -27z"/>
<path d="M3379 4253 c-13 -16 -12 -17 4 -4 16 13 21 21 13 21 -2 0 -10 -8 -17
-17z"/>
<path d="M3514 4213 c-15 -21 -39 -54 -52 -73 l-24 -35 26 30 c34 39 89 115
83 115 -3 0 -17 -17 -33 -37z"/>
<path d="M4429 4223 l-24 -28 28 24 c25 23 32 31 24 31 -2 0 -14 -12 -28 -27z"/>
<path d="M3349 4213 c-13 -16 -12 -17 4 -4 9 7 17 15 17 17 0 8 -8 3 -21 -13z"/>
<path d="M4234 4198 l-29 -33 33 29 c17 17 32 31 32 33 0 8 -8 1 -36 -29z"/>
<path d="M4369 4153 l-34 -38 38 34 c20 19 37 36 37 38 0 8 -8 0 -41 -34z"/>
<path d="M3289 4133 c-13 -16 -12 -17 4 -4 16 13 21 21 13 21 -2 0 -10 -8 -17
-17z"/>
<path d="M4164 4118 l-29 -33 33 29 c17 17 32 31 32 33 0 8 -8 1 -36 -29z"/>
<path d="M3259 4093 c-13 -16 -12 -17 4 -4 16 13 21 21 13 21 -2 0 -10 -8 -17
-17z"/>
<path d="M4314 4088 l-19 -23 23 19 c21 18 27 26 19 26 -2 0 -12 -10 -23 -22z"/>
<path d="M3409 4073 c-29 -35 -41 -53 -36 -53 2 0 17 16 31 35 28 36 31 49 5
18z"/>
<path d="M4114 4058 l-19 -23 23 19 c12 11 22 21 22 23 0 8 -8 2 -26 -19z"/>
<path d="M3220 4040 c-12 -16 -19 -30 -16 -30 2 0 14 14 26 30 12 17 19 30 16
30 -2 0 -14 -13 -26 -30z"/>
<path d="M4259 4023 l-24 -28 28 24 c25 23 32 31 24 31 -2 0 -14 -12 -28 -27z"/>
<path d="M4054 3988 l-29 -33 33 29 c17 17 32 31 32 33 0 8 -8 1 -36 -29z"/>
<path d="M3179 3983 c-13 -16 -12 -17 4 -4 16 13 21 21 13 21 -2 0 -10 -8 -17
-17z"/>
<path d="M4189 3943 l-34 -38 38 34 c20 19 37 36 37 38 0 8 -8 0 -41 -34z"/>
<path d="M3999 3923 l-24 -28 28 24 c25 23 32 31 24 31 -2 0 -14 -12 -28 -27z"/>
<path d="M3460 3907 c0 -1 35 -36 78 -77 l77 -75 -75 78 c-69 71 -80 82 -80
74z"/>
<path d="M3252 3864 c-12 -19 -20 -34 -18 -34 7 0 49 61 44 65 -2 2 -13 -12
-26 -31z"/>
<path d="M4129 3873 l-24 -28 28 24 c25 23 32 31 24 31 -2 0 -14 -12 -28 -27z"/>
<path d="M3099 3873 c-13 -16 -12 -17 4 -4 16 13 21 21 13 21 -2 0 -10 -8 -17
-17z"/>
<path d="M3939 3853 l-24 -28 28 24 c25 23 32 31 24 31 -2 0 -14 -12 -28 -27z"/>
<path d="M3069 3833 c-13 -16 -12 -17 4 -4 16 13 21 21 13 21 -2 0 -10 -8 -17
-17z"/>
<path d="M4074 3808 l-29 -33 33 29 c17 17 32 31 32 33 0 8 -8 1 -36 -29z"/>
<path d="M3889 3793 l-24 -28 28 24 c25 23 32 31 24 31 -2 0 -14 -12 -28 -27z"/>
<path d="M3019 3763 c-13 -16 -12 -17 4 -4 9 7 17 15 17 17 0 8 -8 3 -21 -13z"/>
<path d="M3465 3710 c33 -33 62 -60 64 -60 3 0 -21 27 -54 60 -33 33 -62 60
-64 60 -3 0 21 -27 54 -60z"/>
<path d="M4014 3738 l-29 -33 33 29 c30 28 37 36 29 36 -2 0 -16 -15 -33 -32z"/>
<path d="M3159 3733 c-13 -16 -12 -17 4 -4 9 7 17 15 17 17 0 8 -8 3 -21 -13z"/>
<path d="M2989 3723 c-13 -16 -12 -17 4 -4 16 13 21 21 13 21 -2 0 -10 -8 -17
-17z"/>
<path d="M3630 3736 c0 -2 8 -10 18 -17 15 -13 16 -12 3 4 -13 16 -21 21 -21
13z"/>
<path d="M3814 3708 l-19 -23 23 19 c21 18 27 26 19 26 -2 0 -12 -10 -23 -22z"/>
<path d="M3129 3693 c-13 -16 -12 -17 4 -4 9 7 17 15 17 17 0 8 -8 3 -21 -13z"/>
<path d="M2959 3683 c-13 -16 -12 -17 4 -4 16 13 21 21 13 21 -2 0 -10 -8 -17
-17z"/>
<path d="M3715 3660 c21 -22 41 -40 44 -40 3 0 -13 18 -34 40 -21 22 -41 40
-44 40 -3 0 13 -18 34 -40z"/>
<path d="M3774 3658 l-19 -23 23 19 c21 18 27 26 19 26 -2 0 -12 -10 -23 -22z"/>
<path d="M3939 3653 l-24 -28 28 24 c25 23 32 31 24 31 -2 0 -14 -12 -28 -27z"/>
<path d="M3099 3653 c-13 -16 -12 -17 4 -4 16 13 21 21 13 21 -2 0 -10 -8 -17
-17z"/>
<path d="M2904 3613 c-15 -20 -23 -33 -16 -29 13 8 56 66 49 66 -3 0 -17 -17
-33 -37z"/>
<path d="M3024 3553 c-57 -75 -87 -119 -67 -98 29 30 137 175 130 175 -2 0
-31 -35 -63 -77z"/>
<path d="M3570 3617 c0 -2 15 -16 33 -33 l32 -29 -29 33 c-28 30 -36 37 -36
29z"/>
<path d="M3884 3588 l-29 -33 33 29 c30 28 37 36 29 36 -2 0 -16 -15 -33 -32z"/>
<path d="M2844 3529 c-14 -22 -24 -43 -22 -44 2 -2 16 16 31 40 33 56 26 59
-9 4z"/>
<path d="M3819 3513 l-34 -38 38 34 c20 19 37 36 37 38 0 8 -8 0 -41 -34z"/>
<path d="M3604 3468 l-19 -23 23 19 c21 18 27 26 19 26 -2 0 -12 -10 -23 -22z"/>
<path d="M3759 3443 l-24 -28 28 24 c25 23 32 31 24 31 -2 0 -14 -12 -28 -27z"/>
<path d="M2801 3434 c0 -11 3 -14 6 -6 3 7 2 16 -1 19 -3 4 -6 -2 -5 -13z"/>
<path d="M3549 3403 l-24 -28 28 24 c25 23 32 31 24 31 -2 0 -14 -12 -28 -27z"/>
<path d="M2793 3375 c0 -22 2 -30 4 -17 2 12 2 30 0 40 -3 9 -5 -1 -4 -23z"/>
<path d="M3695 3368 l-40 -43 43 40 c39 36 47 45 39 45 -2 0 -21 -19 -42 -42z"/>
<path d="M2922 3375 c0 -16 2 -22 5 -12 2 9 2 23 0 30 -3 6 -5 -1 -5 -18z"/>
<path d="M3484 3328 l-29 -33 33 29 c30 28 37 36 29 36 -2 0 -16 -15 -33 -32z"/>
<path d="M2960 3296 c0 -2 8 -10 18 -17 15 -13 16 -12 3 4 -13 16 -21 21 -21
13z"/>
<path d="M3574 3233 c-94 -108 -123 -145 -66 -84 63 66 136 151 130 151 -3 0
-31 -30 -64 -67z"/>
<path d="M3419 3253 l-34 -38 38 34 c34 33 42 41 34 41 -2 0 -19 -17 -38 -37z"/>
<path d="M2784 3248 l-19 -23 23 19 c21 18 27 26 19 26 -2 0 -12 -10 -23 -22z"/>
<path d="M3015 3240 c10 -11 20 -20 23 -20 3 0 -3 9 -13 20 -10 11 -20 20 -23
20 -3 0 3 -9 13 -20z"/>
<path d="M3344 3168 l-29 -33 33 29 c17 17 32 31 32 33 0 8 -8 1 -36 -29z"/>
<path d="M3105 3140 c10 -11 20 -20 23 -20 3 0 -3 9 -13 20 -10 11 -20 20 -23
20 -3 0 3 -9 13 -20z"/>
<path d="M3140 3106 c0 -3 9 -10 20 -16 11 -6 20 -8 20 -6 0 3 -9 10 -20 16
-11 6 -20 8 -20 6z"/>
<path d="M3414 3048 l-29 -33 33 29 c17 17 32 31 32 33 0 8 -8 1 -36 -29z"/>
<path d="M2823 3020 c0 -25 2 -35 4 -22 2 12 2 32 0 45 -2 12 -4 2 -4 -23z"/>
<path d="M2693 3010 c0 -25 2 -35 4 -22 2 12 2 32 0 45 -2 12 -4 2 -4 -23z"/>
<path d="M3029 2963 c-13 -16 -12 -17 4 -4 16 13 21 21 13 21 -2 0 -10 -8 -17
-17z"/>
<path d="M3290 2970 c-8 -5 -10 -10 -5 -10 6 0 17 5 25 10 8 5 11 10 5 10 -5
0 -17 -5 -25 -10z"/>
<path d="M2701 2934 c0 -11 3 -14 6 -6 3 7 2 16 -1 19 -3 4 -6 -2 -5 -13z"/>
<path d="M2990 2940 c-9 -6 -10 -10 -3 -10 6 0 15 5 18 10 8 12 4 12 -15 0z"/>
<path d="M3170 2925 c-20 -24 -6 -28 15 -5 10 11 13 20 8 20 -6 0 -16 -7 -23
-15z"/>
<path d="M2950 2920 c-9 -6 -10 -10 -3 -10 6 0 15 5 18 10 8 12 4 12 -15 0z"/>
<path d="M3104 2858 l-19 -23 23 19 c12 11 22 21 22 23 0 8 -8 2 -26 -19z"/>
<path d="M2709 2823 c-13 -17 -13 -17 6 -3 11 8 22 16 24 17 2 2 0 3 -6 3 -6
0 -17 -8 -24 -17z"/>
<path d="M2908 2773 c7 -3 16 -2 19 1 4 3 -2 6 -13 5 -11 0 -14 -3 -6 -6z"/>
<path d="M2619 2733 c-13 -16 -12 -17 4 -4 16 13 21 21 13 21 -2 0 -10 -8 -17
-17z"/>
<path d="M2580 2680 c-6 -11 -8 -20 -6 -20 3 0 10 9 16 20 6 11 8 20 6 20 -3
0 -10 -9 -16 -20z"/>
<path d="M2715 2644 c-9 -15 -12 -23 -6 -20 11 7 35 46 28 46 -3 0 -12 -12
-22 -26z"/>
<path d="M2555 2639 c-4 -6 -5 -12 -2 -15 2 -3 7 2 10 11 7 17 1 20 -8 4z"/>
<path d="M2675 2579 c-9 -17 -15 -33 -13 -35 3 -2 12 12 21 31 21 43 13 47 -8
4z"/>
<path d="M2511 2504 c0 -11 3 -14 6 -6 3 7 2 16 -1 19 -3 4 -6 -2 -5 -13z"/>
<path d="M2502 2430 c0 -19 2 -27 5 -17 2 9 2 25 0 35 -3 9 -5 1 -5 -18z"/>
<path d="M2512 2340 c0 -14 2 -19 5 -12 2 6 2 18 0 25 -3 6 -5 1 -5 -13z"/>
<path d="M2650 2325 c0 -5 5 -17 10 -25 5 -8 10 -10 10 -5 0 6 -5 17 -10 25
-5 8 -10 11 -10 5z"/>
<path d="M2530 2275 c0 -5 5 -17 10 -25 5 -8 10 -10 10 -5 0 6 -5 17 -10 25
-5 8 -10 11 -10 5z"/>
<path d="M2680 2260 c6 -11 13 -20 16 -20 2 0 0 9 -6 20 -6 11 -13 20 -16 20
-2 0 0 -9 6 -20z"/>
<path d="M2737 2190 c23 -24 44 -42 46 -40 2 3 -17 23 -42 44 l-46 40 42 -44z"/>
<path d="M2590 2156 c0 -2 8 -10 18 -17 15 -13 16 -12 3 4 -13 16 -21 21 -21
13z"/>
<path d="M2800 2136 c0 -3 9 -10 20 -16 11 -6 20 -8 20 -6 0 3 -9 10 -20 16
-11 6 -20 8 -20 6z"/>
<path d="M2857 2099 c7 -7 15 -10 18 -7 3 3 -2 9 -12 12 -14 6 -15 5 -6 -5z"/>
<path d="M3018 2043 c7 -3 16 -2 19 1 4 3 -2 6 -13 5 -11 0 -14 -3 -6 -6z"/>
<path d="M3088 2033 c6 -2 18 -2 25 0 6 3 1 5 -13 5 -14 0 -19 -2 -12 -5z"/>
<path d="M3438 2023 c134 -2 350 -2 480 0 130 1 21 2 -243 2 -264 0 -371 -1
-237 -2z"/>
<path d="M2740 2016 c0 -3 9 -10 20 -16 11 -6 20 -8 20 -6 0 3 -9 10 -20 16
-11 6 -20 8 -20 6z"/>
<path d="M4202 1960 c0 -14 2 -19 5 -12 2 6 2 18 0 25 -3 6 -5 1 -5 -13z"/>
<path d="M2840 1960 c8 -5 20 -10 25 -10 6 0 3 5 -5 10 -8 5 -19 10 -25 10 -5
0 -3 -5 5 -10z"/>
<path d="M2958 1923 c7 -3 16 -2 19 1 4 3 -2 6 -13 5 -11 0 -14 -3 -6 -6z"/>
<path d="M2998 1913 c6 -2 18 -2 25 0 6 3 1 5 -13 5 -14 0 -19 -2 -12 -5z"/>
<path d="M3053 1903 c9 -2 25 -2 35 0 9 3 1 5 -18 5 -19 0 -27 -2 -17 -5z"/>
<path d="M3423 1893 c136 -2 358 -2 495 0 136 1 24 2 -248 2 -272 0 -384 -1
-247 -2z"/>
</g>
</svg>
